<?xml version="1.0" encoding="UTF-8" standalone="no"?>
<!-- Created with Inkscape (http://www.inkscape.org/) -->

<svg
   xmlns:dc="http://purl.org/dc/elements/1.1/"
   xmlns:cc="http://creativecommons.org/ns#"
   xmlns:rdf="http://www.w3.org/1999/02/22-rdf-syntax-ns#"
   xmlns:svg="http://www.w3.org/2000/svg"
   xmlns="http://www.w3.org/2000/svg"
   xmlns:sodipodi="http://sodipodi.sourceforge.net/DTD/sodipodi-0.dtd"
   xmlns:inkscape="http://www.inkscape.org/namespaces/inkscape"
   width="41.630077mm"
   height="21.166666mm"
   viewBox="0 0 41.630077 21.166666"
   version="1.1"
   id="svg5535"
   inkscape:version="0.92.1 r15371"
   sodipodi:docname="logo-rhs.svg">
  <defs
     id="defs5529" />
  <sodipodi:namedview
     id="base"
     pagecolor="#ffffff"
     bordercolor="#666666"
     borderopacity="1.0"
     inkscape:pageopacity="0.0"
     inkscape:pageshadow="2"
     inkscape:zoom="1.4"
     inkscape:cx="258.39113"
     inkscape:cy="88.421726"
     inkscape:document-units="mm"
     inkscape:current-layer="layer1"
     showgrid="false"
     fit-margin-top="0"
     fit-margin-left="0"
     fit-margin-right="0"
     fit-margin-bottom="0"
     inkscape:window-width="1920"
     inkscape:window-height="1016"
     inkscape:window-x="0"
     inkscape:window-y="30"
     inkscape:window-maximized="1" />
  <metadata
     id="metadata5532">
    <rdf:RDF>
      <cc:Work
         rdf:about="">
        <dc:format>image/svg+xml</dc:format>
        <dc:type
           rdf:resource="http://purl.org/dc/dcmitype/StillImage" />
        <dc:title></dc:title>
      </cc:Work>
    </rdf:RDF>
  </metadata>
  <g
     inkscape:label="Camada 1"
     inkscape:groupmode="layer"
     id="layer1"
     transform="translate(-47.839195,-87.417919)">
    <g
       id="g24"
       transform="matrix(0.33317525,0,0,-0.33317525,89.46472,100.36311)">
      <path
         d="m 0,0 c -0.414,1.338 -0.714,3.827 -1.589,4.973 -0.359,0.47 -0.65,0.806 -1.888,0.828 -3.762,0.069 -11.149,-1.452 -13.615,-2.461 -2.206,2.01 -4.67,4.175 -7.078,6.949 -4.229,4.872 -5.462,7.29 -6.224,8.012 -0.401,0.381 -1.842,0.314 -2.335,0.29 -3.992,-0.19 -5.366,-1.068 -5.37,-4.148 -0.01,-7.187 -1.052,-26.815 -6.761,-26.815 -4.853,0 -4.377,17.545 -11.588,17.754 -6.521,0.188 -13.436,-5.375 -17.825,-17.171 0.024,2.299 0.064,4.758 0.128,7.247 6.787,8.645 14.903,21.601 14.3,33.57 -0.25,4.951 -2.01,9.826 -7.131,9.826 -6.908,0 -10.676,-5.529 -12.739,-18.575 -1.224,-7.735 -1.739,-17.426 -1.913,-26.097 -0.121,-0.154 -0.233,-0.295 -0.345,-0.435 -2.581,-3.143 -5.164,-5.648 -6.844,-5.648 -5.402,0 -3.945,12.966 -1.585,15.424 2.36,2.457 -2.63,7.249 -4.674,7.207 -2.036,-0.041 -4.419,-4.517 -11.296,-4.551 0.444,2.279 0.693,4.463 0.623,6.399 -0.322,8.917 -6.125,8.654 -6.984,8.637 -3.795,0 -8.335,-3.633 -7.597,-10.375 0.382,-3.493 3.24,-7.53 7.413,-9.903 -0.091,-0.204 -0.166,-0.394 -0.263,-0.601 -4.81,-10.357 -9.113,-14.827 -11.371,-16.614 -0.56,-0.444 -0.497,-1.299 0.112,-1.672 1.125,-0.688 2.948,-1.525 5.113,-1.481 2.44,0.049 7.86,9.133 11.069,18.628 2.535,-0.5 5.309,-0.381 8.186,0.705 0,0 -1.742,-19.311 7.768,-19.311 3.698,0 7.403,2.647 10.6,5.967 0.001,-3.303 0.044,-6.257 0.102,-8.623 0,0 0.017,-2.043 1.958,-2.435 2.399,-0.484 5.368,0.183 5.368,0.183 0,0 5.32,21.456 12.858,21.456 5.843,0 3.289,-15.951 14.24,-15.883 14.595,0.091 13.939,27.672 14.083,28.688 0.004,0.022 2.203,-2.777 4.722,-5.37 1.643,-1.692 3.01,-3.045 4.359,-4.395 -12.32,-7.795 -9.122,-21.25 1.681,-21.25 8.089,0 13.106,4.782 13.106,11.116 0,3.746 -1.504,6.402 -3.468,8.837 1.368,0.499 8.217,0.968 12.104,0.61 C -0.346,-0.53 0.097,-0.313 0,0 m -73.271,11.087 c 1.314,12.009 2.469,22.177 5.826,22.259 3.435,0 2.566,-11.935 -3.099,-22.439 -1.014,-1.88 -2.071,-3.679 -3.126,-5.381 -0.025,-0.04 -0.038,-0.06 -0.065,-0.104 0.126,2.048 0.278,3.972 0.464,5.665 m -37.371,-3.651 c -4.128,2.765 -4.741,9.154 -1.984,9.154 0.028,0 0.048,0.005 0.075,0.005 1.558,-0.059 3.354,-2.94 1.909,-9.159 m 88.239,-23.771 c -6.196,0 -7.398,8.066 2.038,12.761 4.81,-5.407 3.967,-12.761 -2.038,-12.761"
         style="fill:#00b9b4;fill-opacity:1;fill-rule:nonzero;stroke:none"
         id="path26"
         inkscape:connector-curvature="0" />
    </g>
  </g>
</svg>
