<?xml version="1.0" encoding="UTF-8" standalone="no"?>
<!-- Created with Inkscape (http://www.inkscape.org/) -->

<svg
   xmlns:dc="http://purl.org/dc/elements/1.1/"
   xmlns:cc="http://creativecommons.org/ns#"
   xmlns:rdf="http://www.w3.org/1999/02/22-rdf-syntax-ns#"
   xmlns:svg="http://www.w3.org/2000/svg"
   xmlns="http://www.w3.org/2000/svg"
   xmlns:sodipodi="http://sodipodi.sourceforge.net/DTD/sodipodi-0.dtd"
   xmlns:inkscape="http://www.inkscape.org/namespaces/inkscape"
   version="1.1"
   id="svg2"
   xml:space="preserve"
   width="598.73657"
   height="84.706833"
   viewBox="0 0 598.73656 84.706832"
   sodipodi:docname="logo-rhs-full.svg"
   inkscape:version="0.92.2 (5c3e80d, 2017-08-06)"><metadata
     id="metadata8"><rdf:RDF><cc:Work
         rdf:about=""><dc:format>image/svg+xml</dc:format><dc:type
           rdf:resource="http://purl.org/dc/dcmitype/StillImage" /><dc:title /></cc:Work></rdf:RDF></metadata><defs
     id="defs6"><clipPath
       clipPathUnits="userSpaceOnUse"
       id="clipPath18"><path
         d="M 0,0 H 841.89 V 595.276 H 0 Z"
         id="path16"
         inkscape:connector-curvature="0" /></clipPath></defs><sodipodi:namedview
     pagecolor="#ffffff"
     bordercolor="#666666"
     borderopacity="1"
     objecttolerance="10"
     gridtolerance="10"
     guidetolerance="10"
     inkscape:pageopacity="0"
     inkscape:pageshadow="2"
     inkscape:window-width="3200"
     inkscape:window-height="1670"
     id="namedview4"
     showgrid="false"
     fit-margin-top="0"
     fit-margin-left="0"
     fit-margin-right="0"
     fit-margin-bottom="0"
     inkscape:zoom="1.682015"
     inkscape:cx="133.14217"
     inkscape:cy="4.7782718"
     inkscape:window-x="0"
     inkscape:window-y="66"
     inkscape:window-maximized="1"
     inkscape:current-layer="g10" /><g
     id="g10"
     inkscape:groupmode="layer"
     inkscape:label="RHS-Logotipo-RGB"
     transform="matrix(1.3333333,0,0,-1.3333333,-261.89156,439.20386)"><g
       id="g12"><g
         id="g14"
         clip-path="url(#clipPath18)"><g
           id="g20"
           transform="translate(537.4511,290.2342)"><path
             d="m 0,0 v -11.976 c 0,-0.659 -0.267,-0.926 -0.926,-0.926 h -1.405 c -0.675,0 -0.924,0.252 -0.924,0.926 V 0.205 c 0,3.312 -1.418,5.137 -3.996,5.137 -2.057,0 -3.703,-0.985 -5.034,-3.011 l 0.013,-14.307 c 0,-0.674 -0.249,-0.926 -0.923,-0.926 h -1.377 c -0.674,0 -0.923,0.252 -0.923,0.926 V 6.999 c 0,0.61 0.254,0.807 1.042,0.807 1.396,0 1.659,-0.309 2.112,-2.506 1.089,1.321 3.345,2.799 5.912,2.799 C -2.163,8.099 0,5.373 0,0 m -186.553,8.275 c -1.668,0 -3.025,-0.63 -4.01,-1.825 -0.215,-0.234 -0.428,-0.472 -0.614,-0.751 -0.384,2.021 -0.748,2.107 -2.17,2.107 -0.789,0 -1.043,-0.197 -1.043,-0.807 v -18.978 c 0,-0.674 0.252,-0.923 0.926,-0.923 h 1.405 c 0.685,0 0.952,0.259 0.952,0.923 v 11.974 c 0.115,1.997 0.874,5.347 4.671,5.347 1.043,0 1.683,-0.29 2.108,-0.485 0.234,-0.106 0.42,-0.189 0.586,-0.189 0.299,0 0.602,0.394 0.602,1.276 0,0.806 -0.713,2.331 -3.413,2.331 m 43.335,-10.648 c 0,-5.091 -2.697,-10.529 -10.267,-10.529 h -4.627 c -0.645,0 -0.897,0.252 -0.897,0.895 V 7.438 c 0,0.645 0.252,0.897 0.897,0.897 h 4.451 c 6.54,0 10.443,-4.004 10.443,-10.708 m -3.314,0 c 0,1.935 -0.503,8.242 -6.982,8.242 h -2.152 v -16.294 l 2.21,0.075 c 6.423,0 6.924,6.105 6.924,7.977 M 8.706,2.876 H 7.152 C 6.509,2.876 6.258,2.624 6.258,1.981 v -13.988 c 0,-0.643 0.251,-0.895 0.894,-0.895 h 1.554 c 0.643,0 0.895,0.252 0.895,0.895 V 1.981 c 0,0.643 -0.252,0.895 -0.895,0.895 M 27.227,-10.176 H 18.95 l 8.174,15.241 c 0.327,0.599 0.415,0.762 0.415,1.234 V 7.09 c 0,0.566 -0.234,0.807 -0.781,0.807 h -10.63 c -0.516,0 -0.778,-0.107 -0.778,-0.69 v -1.26 c 0,-0.581 0.197,-0.779 0.778,-0.779 h 7.326 L 15.22,-10.366 c -0.233,-0.441 -0.339,-0.643 -0.339,-1.084 v -0.674 c 0,-0.545 0.223,-0.778 0.749,-0.778 h 11.597 c 0.499,0 0.719,0.249 0.719,0.807 v 1.084 c 0,0.529 -0.117,0.835 -0.719,0.835 m 22.075,-1.45 c 0,-1.05 -0.941,-1.629 -2.653,-1.629 -1.413,0 -3.063,0.864 -3.063,3.299 v 0.483 c -0.144,-0.277 -0.307,-0.544 -0.486,-0.804 -0.863,-1.392 -2.593,-2.978 -5.647,-2.978 -3.768,0 -6.019,2.065 -6.019,5.524 0,4.308 2.816,6.312 8.861,6.312 h 3.337 v 0.041 l -0.074,2.317 c 0,3.763 -2.474,4.551 -4.551,4.551 -2.15,0 -3.769,-0.698 -4.84,-1.159 -0.492,-0.213 -0.848,-0.366 -1.076,-0.366 -0.365,0 -0.576,0.412 -0.576,1.131 0,0.609 0.319,1.089 1.033,1.556 0.547,0.381 2.59,1.623 5.868,1.623 4.907,0 7.397,-2.469 7.397,-7.336 v -9.227 c 0,-2.41 0.461,-2.532 1.799,-2.532 0.477,0 0.69,-0.116 0.69,-0.806 m -5.744,7.819 -3.177,-0.075 c -3.836,0 -5.547,-1.123 -5.547,-3.644 0,-2.663 2.155,-3.06 3.439,-3.06 3.26,0 5.285,2.598 5.285,6.779 m 24.014,3.387 c -1.997,0.809 -3.721,1.509 -3.721,3.584 0,2.381 2.228,2.736 3.555,2.736 1.715,0 2.866,-0.563 3.626,-0.934 0.386,-0.189 0.666,-0.327 0.884,-0.327 0.291,0 0.63,0.265 0.63,1.014 0,0.529 -0.241,1.297 -1.385,1.938 -1.052,0.586 -2.66,0.949 -4.193,0.949 -3.937,0 -6.286,-2.085 -6.286,-5.581 0,-3.727 2.567,-4.826 5.052,-5.892 2.131,-0.913 4.144,-1.774 4.144,-4.3 0,-2.256 -1.46,-3.498 -4.113,-3.498 -2.044,0 -3.504,0.726 -4.378,1.159 -0.407,0.202 -0.677,0.334 -0.863,0.334 -0.53,0 -0.545,-1.014 -0.545,-1.13 0,-0.747 0.316,-1.281 1.061,-1.79 1.141,-0.76 3.049,-1.213 5.109,-1.213 4.447,0 6.895,2.23 6.895,6.283 0,4.45 -2.907,5.628 -5.472,6.668 m 34.973,0 c -1.996,0.809 -3.724,1.509 -3.724,3.584 0,2.381 2.231,2.736 3.558,2.736 1.712,0 2.864,-0.563 3.626,-0.934 0.386,-0.189 0.667,-0.327 0.884,-0.327 0.291,0 0.631,0.265 0.631,1.014 0,0.747 -0.493,1.437 -1.385,1.938 -1.053,0.586 -2.661,0.949 -4.196,0.949 -3.934,0 -6.284,-2.085 -6.284,-5.581 0,-3.727 2.567,-4.826 5.052,-5.892 2.132,-0.913 4.144,-1.774 4.144,-4.3 0,-2.256 -1.46,-3.498 -4.113,-3.498 -2.044,0 -3.506,0.726 -4.38,1.159 -0.407,0.202 -0.677,0.334 -0.864,0.334 -0.526,0 -0.542,-1.014 -0.542,-1.13 0,-0.747 0.317,-1.281 1.058,-1.79 1.141,-0.76 3.05,-1.213 5.109,-1.213 4.45,0 6.901,2.23 6.901,6.283 0,4.45 -2.907,5.628 -5.475,6.668 m -267.731,-3.374 h -12.116 c 0,-4.869 2.724,-6.732 6.553,-6.732 2.14,0 4.038,0.606 5.171,0.969 0.488,0.156 0.812,0.26 0.978,0.26 0.329,0 0.721,-0.166 0.721,-0.955 0,-0.705 -0.418,-1.343 -1.206,-1.846 -1.284,-0.835 -3.444,-1.333 -5.783,-1.333 -6.616,0 -9.972,3.641 -9.972,10.825 0,6.916 3.25,10.881 8.919,10.881 5.259,0 8.275,-3.742 8.275,-10.267 0,-1.551 -0.215,-1.802 -1.54,-1.802 m -1.76,2.552 c 0,0.947 -0.226,6.849 -4.887,6.849 -3.498,0 -5.316,-2.306 -5.399,-6.849 z m 94.908,-9.578 c -1.33,0 -1.764,0.179 -1.795,2.309 V 7.168 c 0,0.628 -0.142,0.926 -0.954,0.926 h -1.434 c -0.662,0 -0.895,-0.241 -0.895,-0.926 l 0.01,-14.336 c -1.338,-2.339 -2.982,-3.475 -5.031,-3.475 -3.28,0 -3.968,2.331 -3.968,4.289 V 7.168 c 0,0.692 -0.241,0.926 -0.951,0.926 h -1.437 c -0.674,0 -0.923,-0.252 -0.923,-0.926 V -6.149 c 0,-4.831 2.204,-7.282 6.548,-7.282 2.809,0 4.756,1.849 5.543,2.881 0.209,0.241 0.325,0.395 0.387,0.48 0.04,-2.335 1.53,-3.185 2.937,-3.185 1.711,0 2.653,0.579 2.653,1.629 0,0.69 -0.213,0.806 -0.69,0.806 m 23.729,19.007 c -1.767,0 -3.616,-0.88 -4.966,-2.294 -0.204,-0.198 -0.421,-0.382 -0.604,-0.598 -0.918,1.917 -2.62,2.892 -5.06,2.892 -1.599,0 -3.047,-0.577 -4.342,-1.729 -0.372,-0.31 -0.716,-0.652 -1.041,-1.007 -0.415,2.278 -0.707,2.355 -2.143,2.355 -0.778,0 -1.014,-0.189 -1.014,-0.807 v -18.975 c 0,-0.685 0.236,-0.926 0.897,-0.926 h 1.375 c 0.687,0 0.954,0.259 0.954,0.926 l -0.01,14.427 c 1.154,1.978 2.65,2.979 4.445,2.979 2.938,0 3.555,-2.443 3.555,-4.491 v -12.915 c 0,-0.659 0.267,-0.926 0.926,-0.926 h 1.406 c 0.643,0 0.894,0.259 0.894,0.926 V 0.762 c 0,0.589 -0.028,1.206 -0.098,1.72 1.037,1.864 2.666,2.977 4.357,2.977 2.997,0 3.322,-2.713 3.322,-3.877 v -13.558 c 0,-0.674 0.251,-0.926 0.926,-0.926 h 1.374 c 0.687,0 0.954,0.259 0.954,0.926 V 1.377 c 0,4.518 -2.054,6.81 -6.107,6.81 M 8.771,8.275 H 7.088 c -0.457,0 -0.83,-0.37 -0.83,-0.827 V 5.762 c 0,-0.456 0.373,-0.83 0.83,-0.83 h 1.683 c 0.456,0 0.83,0.374 0.83,0.83 v 1.686 c 0,0.457 -0.374,0.827 -0.83,0.827 m -132.82,-12.069 h -12.116 c 0,-4.869 2.724,-6.732 6.553,-6.732 2.14,0 4.038,0.606 5.171,0.969 0.488,0.156 0.812,0.26 0.978,0.26 0.329,0 0.721,-0.166 0.721,-0.955 0,-0.705 -0.418,-1.343 -1.206,-1.846 -1.284,-0.835 -3.444,-1.333 -5.783,-1.333 -6.616,0 -9.972,3.641 -9.972,10.825 0,6.916 3.25,10.881 8.919,10.881 5.259,0 8.275,-3.742 8.275,-10.267 0,-1.551 -0.215,-1.802 -1.54,-1.802 m -1.76,2.552 c 0,0.947 -0.226,6.849 -4.887,6.849 -3.498,0 -5.316,-2.306 -5.399,-6.849 z m 29.292,9.336 h -1.61 c -0.631,0 -0.866,-0.241 -0.866,-0.895 v -8.047 h -7.552 v 8.047 c 0,0.643 -0.252,0.895 -0.895,0.895 h -1.553 c -0.644,0 -0.895,-0.252 -0.895,-0.895 v -19.206 c 0,-0.643 0.251,-0.895 0.895,-0.895 h 1.553 c 0.643,0 0.895,0.252 0.895,0.895 v 8.58 h 7.552 v -8.835 c 0,-0.453 0.303,-0.64 0.837,-0.64 h 1.639 c 0.63,0 0.866,0.241 0.866,0.895 V 7.199 c 0,0.654 -0.236,0.895 -0.866,0.895 m 77.311,-19.72 c 0,-1.05 -0.942,-1.629 -2.653,-1.629 -1.414,0 -3.063,0.864 -3.063,3.299 v 0.483 c -0.145,-0.277 -0.308,-0.544 -0.486,-0.804 -0.864,-1.392 -2.594,-2.978 -5.647,-2.978 -3.769,0 -6.02,2.065 -6.02,5.524 0,4.308 2.817,6.312 8.862,6.312 h 3.336 v 0.041 l -0.074,2.317 c 0,3.763 -2.474,4.551 -4.551,4.551 -2.15,0 -3.768,-0.698 -4.839,-1.159 -0.493,-0.213 -0.848,-0.366 -1.077,-0.366 -0.365,0 -0.575,0.412 -0.575,1.131 0,0.609 0.319,1.089 1.032,1.556 0.547,0.381 2.591,1.623 5.869,1.623 4.906,0 7.396,-2.469 7.396,-7.336 v -9.227 c 0,-2.41 0.462,-2.532 1.8,-2.532 0.477,0 0.69,-0.116 0.69,-0.806 m -5.745,7.819 -3.177,-0.075 c -3.835,0 -5.547,-1.123 -5.547,-3.644 0,-2.663 2.155,-3.06 3.439,-3.06 3.26,0 5.285,2.598 5.285,6.779 M 91.599,-5.773 V 7.006 c 0,0.649 -0.241,0.891 -0.892,0.891 h -1.525 c -0.649,0 -0.891,-0.242 -0.891,-0.891 V -5.772 c -0.028,-2.325 -0.755,-5.097 -4.059,-5.097 -3.282,0 -4.004,2.771 -4.031,5.096 V 7.006 c 0,0.649 -0.25,0.891 -0.92,0.891 h -1.526 c -0.637,0 -0.862,-0.234 -0.862,-0.891 V -5.658 c 0,-3.623 1.273,-7.943 7.339,-7.943 6.041,0 7.34,4.256 7.367,7.828"
             style="fill:#ffffff;fill-opacity:1;fill-rule:nonzero;stroke:none"
             id="path22"
             inkscape:connector-curvature="0" /></g><g
           id="g24"
           transform="translate(321.3545,290.5489)"><path
             d="m 0,0 c -0.414,1.338 -0.714,3.827 -1.589,4.973 -0.359,0.47 -0.65,0.806 -1.888,0.828 -3.762,0.069 -11.149,-1.452 -13.615,-2.461 -2.206,2.01 -4.67,4.175 -7.078,6.949 -4.229,4.872 -5.462,7.29 -6.224,8.012 -0.401,0.381 -1.842,0.314 -2.335,0.29 -3.992,-0.19 -5.366,-1.068 -5.37,-4.148 -0.01,-7.187 -1.052,-26.815 -6.761,-26.815 -4.853,0 -4.377,17.545 -11.588,17.754 -6.521,0.188 -13.436,-5.375 -17.825,-17.171 0.024,2.299 0.064,4.758 0.128,7.247 6.787,8.645 14.903,21.601 14.3,33.57 -0.25,4.951 -2.01,9.826 -7.131,9.826 -6.908,0 -10.676,-5.529 -12.739,-18.575 -1.224,-7.735 -1.739,-17.426 -1.913,-26.097 -0.121,-0.154 -0.233,-0.295 -0.345,-0.435 -2.581,-3.143 -5.164,-5.648 -6.844,-5.648 -5.402,0 -3.945,12.966 -1.585,15.424 2.36,2.457 -2.63,7.249 -4.674,7.207 -2.036,-0.041 -4.419,-4.517 -11.296,-4.551 0.444,2.279 0.693,4.463 0.623,6.399 -0.322,8.917 -6.125,8.654 -6.984,8.637 -3.795,0 -8.335,-3.633 -7.597,-10.375 0.382,-3.493 3.24,-7.53 7.413,-9.903 -0.091,-0.204 -0.166,-0.394 -0.263,-0.601 -4.81,-10.357 -9.113,-14.827 -11.371,-16.614 -0.56,-0.444 -0.497,-1.299 0.112,-1.672 1.125,-0.688 2.948,-1.525 5.113,-1.481 2.44,0.049 7.86,9.133 11.069,18.628 2.535,-0.5 5.309,-0.381 8.186,0.705 0,0 -1.742,-19.311 7.768,-19.311 3.698,0 7.403,2.647 10.6,5.967 0.001,-3.303 0.044,-6.257 0.102,-8.623 0,0 0.017,-2.043 1.958,-2.435 2.399,-0.484 5.368,0.183 5.368,0.183 0,0 5.32,21.456 12.858,21.456 5.843,0 3.289,-15.951 14.24,-15.883 14.595,0.091 13.939,27.672 14.083,28.688 0.004,0.022 2.203,-2.777 4.722,-5.37 1.643,-1.692 3.01,-3.045 4.359,-4.395 -12.32,-7.795 -9.122,-21.25 1.681,-21.25 8.089,0 13.106,4.782 13.106,11.116 0,3.746 -1.504,6.402 -3.468,8.837 1.368,0.499 8.217,0.968 12.104,0.61 C -0.346,-0.53 0.097,-0.313 0,0 m -73.271,11.087 c 1.314,12.009 2.469,22.177 5.826,22.259 3.435,0 2.566,-11.935 -3.099,-22.439 -1.014,-1.88 -2.071,-3.679 -3.126,-5.381 -0.025,-0.04 -0.038,-0.06 -0.065,-0.104 0.126,2.048 0.278,3.972 0.464,5.665 m -37.371,-3.651 c -4.128,2.765 -4.741,9.154 -1.984,9.154 0.028,0 0.048,0.005 0.075,0.005 1.558,-0.059 3.354,-2.94 1.909,-9.159 m 88.239,-23.771 c -6.196,0 -7.398,8.066 2.038,12.761 4.81,-5.407 3.967,-12.761 -2.038,-12.761"
             style="fill:#00b9b4;fill-opacity:1;fill-rule:nonzero;stroke:none"
             id="path26"
             inkscape:connector-curvature="0" /></g></g></g></g></svg>